<?xml version="1.0" encoding="UTF-8" standalone="no"?>
<!DOCTYPE svg PUBLIC "-//W3C//DTD SVG 1.1//EN"
 "http://www.w3.org/Graphics/SVG/1.1/DTD/svg11.dtd">
<!-- Generated by graphviz version 2.42.4 (0)
 -->
<!-- Title: G Pages: 1 -->
<svg width="738pt" height="632pt"
 viewBox="0.00 0.00 737.50 632.00" xmlns="http://www.w3.org/2000/svg" xmlns:xlink="http://www.w3.org/1999/xlink">
<g id="graph0" class="graph" transform="scale(1 1) rotate(0) translate(18 614)">
<title>G</title>
<text text-anchor="middle" x="350.75" y="-574.4" font-family="Arial" font-size="22.00">AWS Services Architecture</text>
<!-- Users -->
<g id="node1" class="node">
<title>Users</title>
<path fill="#e0f2fe" stroke="#6b7280" d="M116.5,-564C116.5,-564 43.5,-564 43.5,-564 37.5,-564 31.5,-558 31.5,-552 31.5,-552 31.5,-540 31.5,-540 31.5,-534 37.5,-528 43.5,-528 43.5,-528 116.5,-528 116.5,-528 122.5,-528 128.5,-534 128.5,-540 128.5,-540 128.5,-552 128.5,-552 128.5,-558 122.5,-564 116.5,-564"/>
<text text-anchor="middle" x="80" y="-542.9" font-family="Arial" font-size="12.00">Users / Clients</text>
</g>
<!-- R53 -->
<g id="node2" class="node">
<title>R53</title>
<path fill="#eef2ff" stroke="#6b7280" d="M125.5,-483C125.5,-483 34.5,-483 34.5,-483 28.5,-483 22.5,-477 22.5,-471 22.5,-471 22.5,-457 22.5,-457 22.5,-451 28.5,-445 34.5,-445 34.5,-445 125.5,-445 125.5,-445 131.5,-445 137.5,-451 137.5,-457 137.5,-457 137.5,-471 137.5,-471 137.5,-477 131.5,-483 125.5,-483"/>
<text text-anchor="middle" x="80" y="-467.4" font-family="Arial" font-size="12.00">Amazon Route 53</text>
<text text-anchor="middle" x="80" y="-454.4" font-family="Arial" font-size="12.00">DNS</text>
</g>
<!-- Users&#45;&gt;R53 -->
<g id="edge1" class="edge">
<title>Users&#45;&gt;R53</title>
<path fill="none" stroke="#374151" d="M80,-527.8C80,-527.8 80,-491 80,-491"/>
<polygon fill="#374151" stroke="#374151" points="82.8,-491 80,-483 77.2,-491 82.8,-491"/>
</g>
<!-- CF -->
<g id="node3" class="node">
<title>CF</title>
<path fill="#eef2ff" stroke="#6b7280" d="M131,-400C131,-400 29,-400 29,-400 23,-400 17,-394 17,-388 17,-388 17,-374 17,-374 17,-368 23,-362 29,-362 29,-362 131,-362 131,-362 137,-362 143,-368 143,-374 143,-374 143,-388 143,-388 143,-394 137,-400 131,-400"/>
<text text-anchor="middle" x="80" y="-384.4" font-family="Arial" font-size="12.00">Amazon CloudFront</text>
<text text-anchor="middle" x="80" y="-371.4" font-family="Arial" font-size="12.00">CDN</text>
</g>
<!-- R53&#45;&gt;CF -->
<g id="edge2" class="edge">
<title>R53&#45;&gt;CF</title>
<path fill="none" stroke="#374151" d="M80,-444.75C80,-444.75 80,-408.15 80,-408.15"/>
<polygon fill="#374151" stroke="#374151" points="82.8,-408.15 80,-400.15 77.2,-408.15 82.8,-408.15"/>
</g>
<!-- WAF -->
<g id="node4" class="node">
<title>WAF</title>
<path fill="#fee2e2" stroke="#6b7280" d="M117.5,-317C117.5,-317 42.5,-317 42.5,-317 36.5,-317 30.5,-311 30.5,-305 30.5,-305 30.5,-291 30.5,-291 30.5,-285 36.5,-279 42.5,-279 42.5,-279 117.5,-279 117.5,-279 123.5,-279 129.5,-285 129.5,-291 129.5,-291 129.5,-305 129.5,-305 129.5,-311 123.5,-317 117.5,-317"/>
<text text-anchor="middle" x="80" y="-301.4" font-family="Arial" font-size="12.00">AWS WAF</text>
<text text-anchor="middle" x="80" y="-288.4" font-family="Arial" font-size="12.00">Web protection</text>
</g>
<!-- CF&#45;&gt;WAF -->
<g id="edge3" class="edge">
<title>CF&#45;&gt;WAF</title>
<path fill="none" stroke="#374151" d="M80,-361.75C80,-361.75 80,-325.15 80,-325.15"/>
<polygon fill="#374151" stroke="#374151" points="82.8,-325.15 80,-317.15 77.2,-325.15 82.8,-325.15"/>
</g>
<!-- ALB -->
<g id="node5" class="node">
<title>ALB</title>
<path fill="#e0f2fe" stroke="#6b7280" d="M148,-223C148,-223 12,-223 12,-223 6,-223 0,-217 0,-211 0,-211 0,-199 0,-199 0,-193 6,-187 12,-187 12,-187 148,-187 148,-187 154,-187 160,-193 160,-199 160,-199 160,-211 160,-211 160,-217 154,-223 148,-223"/>
<text text-anchor="middle" x="80" y="-201.9" font-family="Arial" font-size="12.00">Application Load Balancer</text>
</g>
<!-- WAF&#45;&gt;ALB -->
<g id="edge4" class="edge">
<title>WAF&#45;&gt;ALB</title>
<path fill="none" stroke="#374151" d="M80,-278.73C80,-278.73 80,-231.3 80,-231.3"/>
<polygon fill="#374151" stroke="#374151" points="82.8,-231.3 80,-223.3 77.2,-231.3 82.8,-231.3"/>
</g>
<!-- APP -->
<g id="node6" class="node">
<title>APP</title>
<path fill="#dcfce7" stroke="#6b7280" d="M484.5,-131C484.5,-131 345.5,-131 345.5,-131 339.5,-131 333.5,-125 333.5,-119 333.5,-119 333.5,-105 333.5,-105 333.5,-99 339.5,-93 345.5,-93 345.5,-93 484.5,-93 484.5,-93 490.5,-93 496.5,-99 496.5,-105 496.5,-105 496.5,-119 496.5,-119 496.5,-125 490.5,-131 484.5,-131"/>
<text text-anchor="middle" x="415" y="-115.4" font-family="Arial" font-size="12.00">Compute Layer</text>
<text text-anchor="middle" x="415" y="-102.4" font-family="Arial" font-size="12.00">EC2 / ECS / EKS / Lambda</text>
</g>
<!-- ALB&#45;&gt;APP -->
<g id="edge5" class="edge">
<title>ALB&#45;&gt;APP</title>
<path fill="none" stroke="#374151" d="M153.33,-186.96C153.33,-173.71 153.33,-158 153.33,-158 153.33,-158 339,-158 339,-158 339,-158 339,-139.24 339,-139.24"/>
<polygon fill="#374151" stroke="#374151" points="341.8,-139.24 339,-131.24 336.2,-139.24 341.8,-139.24"/>
</g>
<!-- DB -->
<g id="node7" class="node">
<title>DB</title>
<path fill="#fef3c7" stroke="#6b7280" d="M297.5,-38C297.5,-38 160.5,-38 160.5,-38 154.5,-38 148.5,-32 148.5,-26 148.5,-26 148.5,-12 148.5,-12 148.5,-6 154.5,0 160.5,0 160.5,0 297.5,0 297.5,0 303.5,0 309.5,-6 309.5,-12 309.5,-12 309.5,-26 309.5,-26 309.5,-32 303.5,-38 297.5,-38"/>
<text text-anchor="middle" x="229" y="-22.4" font-family="Arial" font-size="12.00">Database Layer</text>
<text text-anchor="middle" x="229" y="-9.4" font-family="Arial" font-size="12.00">RDS / Aurora / DynamoDB</text>
</g>
<!-- APP&#45;&gt;DB -->
<g id="edge6" class="edge">
<title>APP&#45;&gt;DB</title>
<path fill="none" stroke="#374151" d="M341.5,-92.69C341.5,-67.06 341.5,-25 341.5,-25 341.5,-25 317.56,-25 317.56,-25"/>
<polygon fill="#374151" stroke="#374151" points="317.56,-22.2 309.56,-25 317.56,-27.8 317.56,-22.2"/>
</g>
<!-- S3 -->
<g id="node8" class="node">
<title>S3</title>
<path fill="#fef3c7" stroke="#6b7280" d="M468.5,-38C468.5,-38 361.5,-38 361.5,-38 355.5,-38 349.5,-32 349.5,-26 349.5,-26 349.5,-12 349.5,-12 349.5,-6 355.5,0 361.5,0 361.5,0 468.5,0 468.5,0 474.5,0 480.5,-6 480.5,-12 480.5,-12 480.5,-26 480.5,-26 480.5,-32 474.5,-38 468.5,-38"/>
<text text-anchor="middle" x="415" y="-22.4" font-family="Arial" font-size="12.00">Storage Layer</text>
<text text-anchor="middle" x="415" y="-9.4" font-family="Arial" font-size="12.00">S3 / EBS / EFS / FSx</text>
</g>
<!-- APP&#45;&gt;S3 -->
<g id="edge7" class="edge">
<title>APP&#45;&gt;S3</title>
<path fill="none" stroke="#374151" d="M415,-92.73C415,-92.73 415,-46.24 415,-46.24"/>
<polygon fill="#374151" stroke="#374151" points="417.8,-46.24 415,-38.24 412.2,-46.25 417.8,-46.24"/>
</g>
<!-- IAM -->
<g id="node9" class="node">
<title>IAM</title>
<path fill="#fee2e2" stroke="#6b7280" d="M338,-224C338,-224 212,-224 212,-224 206,-224 200,-218 200,-212 200,-212 200,-198 200,-198 200,-192 206,-186 212,-186 212,-186 338,-186 338,-186 344,-186 350,-192 350,-198 350,-198 350,-212 350,-212 350,-218 344,-224 338,-224"/>
<text text-anchor="middle" x="275" y="-208.4" font-family="Arial" font-size="12.00">IAM / IAM Identity Center</text>
<text text-anchor="middle" x="275" y="-195.4" font-family="Arial" font-size="12.00">Access control</text>
</g>
<!-- IAM&#45;&gt;APP -->
<g id="edge8" class="edge">
<title>IAM&#45;&gt;APP</title>
<path fill="none" stroke="#374151" d="M344.5,-185.73C344.5,-185.73 344.5,-139.24 344.5,-139.24"/>
<polygon fill="#374151" stroke="#374151" points="347.3,-139.24 344.5,-131.24 341.7,-139.25 347.3,-139.24"/>
</g>
<!-- KMS -->
<g id="node10" class="node">
<title>KMS</title>
<path fill="#fee2e2" stroke="#6b7280" d="M281.5,-131C281.5,-131 202.5,-131 202.5,-131 196.5,-131 190.5,-125 190.5,-119 190.5,-119 190.5,-105 190.5,-105 190.5,-99 196.5,-93 202.5,-93 202.5,-93 281.5,-93 281.5,-93 287.5,-93 293.5,-99 293.5,-105 293.5,-105 293.5,-119 293.5,-119 293.5,-125 287.5,-131 281.5,-131"/>
<text text-anchor="middle" x="242" y="-115.4" font-family="Arial" font-size="12.00">AWS KMS</text>
<text text-anchor="middle" x="242" y="-102.4" font-family="Arial" font-size="12.00">Encryption keys</text>
</g>
<!-- KMS&#45;&gt;DB -->
<g id="edge9" class="edge">
<title>KMS&#45;&gt;DB</title>
<path fill="none" stroke="#374151" d="M242,-92.73C242,-92.73 242,-46.24 242,-46.24"/>
<polygon fill="#374151" stroke="#374151" points="244.8,-46.24 242,-38.24 239.2,-46.25 244.8,-46.24"/>
</g>
<!-- KMS&#45;&gt;S3 -->
<g id="edge10" class="edge">
<title>KMS&#45;&gt;S3</title>
<path fill="none" stroke="#374151" d="M293.69,-112C308.88,-112 321.5,-112 321.5,-112 321.5,-112 321.5,-12 321.5,-12 321.5,-12 341.3,-12 341.3,-12"/>
<polygon fill="#374151" stroke="#374151" points="341.3,-14.8 349.3,-12 341.3,-9.2 341.3,-14.8"/>
</g>
<!-- SM -->
<g id="node11" class="node">
<title>SM</title>
<path fill="#fee2e2" stroke="#6b7280" d="M522,-224C522,-224 402,-224 402,-224 396,-224 390,-218 390,-212 390,-212 390,-198 390,-198 390,-192 396,-186 402,-186 402,-186 522,-186 522,-186 528,-186 534,-192 534,-198 534,-198 534,-212 534,-212 534,-218 528,-224 522,-224"/>
<text text-anchor="middle" x="462" y="-208.4" font-family="Arial" font-size="12.00">Secrets Manager</text>
<text text-anchor="middle" x="462" y="-195.4" font-family="Arial" font-size="12.00">Secrets and credentials</text>
</g>
<!-- SM&#45;&gt;APP -->
<g id="edge11" class="edge">
<title>SM&#45;&gt;APP</title>
<path fill="none" stroke="#374151" d="M443.25,-185.73C443.25,-185.73 443.25,-139.24 443.25,-139.24"/>
<polygon fill="#374151" stroke="#374151" points="446.05,-139.24 443.25,-131.24 440.45,-139.25 446.05,-139.24"/>
</g>
<!-- CW -->
<g id="node12" class="node">
<title>CW</title>
<path fill="#ede9fe" stroke="#6b7280" d="M689.5,-224C689.5,-224 586.5,-224 586.5,-224 580.5,-224 574.5,-218 574.5,-212 574.5,-212 574.5,-198 574.5,-198 574.5,-192 580.5,-186 586.5,-186 586.5,-186 689.5,-186 689.5,-186 695.5,-186 701.5,-192 701.5,-198 701.5,-198 701.5,-212 701.5,-212 701.5,-218 695.5,-224 689.5,-224"/>
<text text-anchor="middle" x="638" y="-208.4" font-family="Arial" font-size="12.00">CloudWatch</text>
<text text-anchor="middle" x="638" y="-195.4" font-family="Arial" font-size="12.00">Metrics, logs, alarms</text>
</g>
<!-- CW&#45;&gt;APP -->
<g id="edge12" class="edge">
<title>CW&#45;&gt;APP</title>
<path fill="none" stroke="#374151" d="M638,-177.73C638,-177.73 638,-112 638,-112 638,-112 560.41,-112 496.77,-112"/>
<polygon fill="#374151" stroke="#374151" points="635.2,-177.73 638,-185.73 640.8,-177.73 635.2,-177.73"/>
<text text-anchor="middle" x="665.5" y="-156" font-family="Arial" font-size="10.00">observability</text>
</g>
<!-- CT -->
<g id="node13" class="node">
<title>CT</title>
<path fill="#ede9fe" stroke="#6b7280" d="M279.5,-317C279.5,-317 210.5,-317 210.5,-317 204.5,-317 198.5,-311 198.5,-305 198.5,-305 198.5,-291 198.5,-291 198.5,-285 204.5,-279 210.5,-279 210.5,-279 279.5,-279 279.5,-279 285.5,-279 291.5,-285 291.5,-291 291.5,-291 291.5,-305 291.5,-305 291.5,-311 285.5,-317 279.5,-317"/>
<text text-anchor="middle" x="245" y="-301.4" font-family="Arial" font-size="12.00">CloudTrail</text>
<text text-anchor="middle" x="245" y="-288.4" font-family="Arial" font-size="12.00">API audit logs</text>
</g>
<!-- CT&#45;&gt;IAM -->
<g id="edge13" class="edge">
<title>CT&#45;&gt;IAM</title>
<path fill="none" stroke="#374151" d="M245.75,-270.73C245.75,-270.73 245.75,-224.24 245.75,-224.24"/>
<polygon fill="#374151" stroke="#374151" points="242.95,-270.73 245.75,-278.73 248.55,-270.73 242.95,-270.73"/>
<text text-anchor="middle" x="256" y="-249" font-family="Arial" font-size="10.00">audit</text>
</g>
<!-- CFG -->
<g id="node14" class="node">
<title>CFG</title>
<path fill="#ede9fe" stroke="#6b7280" d="M138,-131C138,-131 34,-131 34,-131 28,-131 22,-125 22,-119 22,-119 22,-105 22,-105 22,-99 28,-93 34,-93 34,-93 138,-93 138,-93 144,-93 150,-99 150,-105 150,-105 150,-119 150,-119 150,-125 144,-131 138,-131"/>
<text text-anchor="middle" x="86" y="-115.4" font-family="Arial" font-size="12.00">AWS Config</text>
<text text-anchor="middle" x="86" y="-102.4" font-family="Arial" font-size="12.00">Compliance tracking</text>
</g>
<!-- CFG&#45;&gt;DB -->
<g id="edge14" class="edge">
<title>CFG&#45;&gt;DB</title>
<path fill="none" stroke="#374151" d="M156.01,-112C156.01,-112 156.67,-112 156.67,-112 156.67,-112 156.67,-65.51 156.67,-38.27"/>
<polygon fill="#374151" stroke="#374151" points="158.15,-109.2 150.15,-112 158.15,-114.8 158.15,-109.2"/>
<text text-anchor="middle" x="99.5" y="-63" font-family="Arial" font-size="10.00">config</text>
</g>
<!-- SH -->
<g id="node15" class="node">
<title>SH</title>
<path fill="#fee2e2" stroke="#6b7280" d="M474,-317C474,-317 344,-317 344,-317 338,-317 332,-311 332,-305 332,-305 332,-291 332,-291 332,-285 338,-279 344,-279 344,-279 474,-279 474,-279 480,-279 486,-285 486,-291 486,-291 486,-305 486,-305 486,-311 480,-317 474,-317"/>
<text text-anchor="middle" x="409" y="-301.4" font-family="Arial" font-size="12.00">Security Hub / GuardDuty</text>
<text text-anchor="middle" x="409" y="-288.4" font-family="Arial" font-size="12.00">Security findings</text>
</g>
<!-- SH&#45;&gt;IAM -->
<g id="edge15" class="edge">
<title>SH&#45;&gt;IAM</title>
<path fill="none" stroke="#374151" d="M341,-270.73C341,-270.73 341,-224.24 341,-224.24"/>
<polygon fill="#374151" stroke="#374151" points="338.2,-270.73 341,-278.73 343.8,-270.73 338.2,-270.73"/>
<text text-anchor="middle" x="426" y="-249" font-family="Arial" font-size="10.00">findings</text>
</g>
</g>
</svg>
