<?xml version="1.0" encoding="UTF-8" standalone="no"?>
<!DOCTYPE svg PUBLIC "-//W3C//DTD SVG 1.1//EN"
 "http://www.w3.org/Graphics/SVG/1.1/DTD/svg11.dtd">
<!-- Generated by graphviz version 2.42.4 (0)
 -->
<!-- Title: G Pages: 1 -->
<svg width="1632pt" height="106pt"
 viewBox="0.00 0.00 1632.00 106.00" xmlns="http://www.w3.org/2000/svg" xmlns:xlink="http://www.w3.org/1999/xlink">
<g id="graph0" class="graph" transform="scale(1 1) rotate(0) translate(18 88)">
<title>G</title>
<text text-anchor="middle" x="798" y="-48.4" font-family="Arial" font-size="22.00">AWS DevOps Deployment Flow</text>
<!-- Dev -->
<g id="node1" class="node">
<title>Dev</title>
<path fill="#e0f2fe" stroke="#6b7280" d="M62,-37C62,-37 12,-37 12,-37 6,-37 0,-31 0,-25 0,-25 0,-13 0,-13 0,-7 6,-1 12,-1 12,-1 62,-1 62,-1 68,-1 74,-7 74,-13 74,-13 74,-25 74,-25 74,-31 68,-37 62,-37"/>
<text text-anchor="middle" x="37" y="-15.9" font-family="Arial" font-size="12.00">Developer</text>
</g>
<!-- Git -->
<g id="node2" class="node">
<title>Git</title>
<path fill="#eef2ff" stroke="#6b7280" d="M241,-38C241,-38 129,-38 129,-38 123,-38 117,-32 117,-26 117,-26 117,-12 117,-12 117,-6 123,0 129,0 129,0 241,0 241,0 247,0 253,-6 253,-12 253,-12 253,-26 253,-26 253,-32 247,-38 241,-38"/>
<text text-anchor="middle" x="185" y="-22.4" font-family="Arial" font-size="12.00">GitHub / CodeCommit</text>
<text text-anchor="middle" x="185" y="-9.4" font-family="Arial" font-size="12.00">Source control</text>
</g>
<!-- Dev&#45;&gt;Git -->
<g id="edge1" class="edge">
<title>Dev&#45;&gt;Git</title>
<path fill="none" stroke="#374151" d="M74.35,-19C74.35,-19 108.83,-19 108.83,-19"/>
<polygon fill="#374151" stroke="#374151" points="108.83,-21.8 116.83,-19 108.83,-16.2 108.83,-21.8"/>
</g>
<!-- CI -->
<g id="node3" class="node">
<title>CI</title>
<path fill="#dcfce7" stroke="#6b7280" d="M449,-38C449,-38 308,-38 308,-38 302,-38 296,-32 296,-26 296,-26 296,-12 296,-12 296,-6 302,0 308,0 308,0 449,0 449,0 455,0 461,-6 461,-12 461,-12 461,-26 461,-26 461,-32 455,-38 449,-38"/>
<text text-anchor="middle" x="378.5" y="-22.4" font-family="Arial" font-size="12.00">CI Pipeline</text>
<text text-anchor="middle" x="378.5" y="-9.4" font-family="Arial" font-size="12.00">GitHub Actions / CodeBuild</text>
</g>
<!-- Git&#45;&gt;CI -->
<g id="edge2" class="edge">
<title>Git&#45;&gt;CI</title>
<path fill="none" stroke="#374151" d="M253.22,-19C253.22,-19 287.96,-19 287.96,-19"/>
<polygon fill="#374151" stroke="#374151" points="287.96,-21.8 295.96,-19 287.96,-16.2 287.96,-21.8"/>
</g>
<!-- Scan -->
<g id="node4" class="node">
<title>Scan</title>
<path fill="#fee2e2" stroke="#6b7280" d="M676,-38C676,-38 516,-38 516,-38 510,-38 504,-32 504,-26 504,-26 504,-12 504,-12 504,-6 510,0 516,0 516,0 676,0 676,0 682,0 688,-6 688,-12 688,-12 688,-26 688,-26 688,-32 682,-38 676,-38"/>
<text text-anchor="middle" x="596" y="-22.4" font-family="Arial" font-size="12.00">Security Checks</text>
<text text-anchor="middle" x="596" y="-9.4" font-family="Arial" font-size="12.00">SAST / IaC / Dependency scan</text>
</g>
<!-- CI&#45;&gt;Scan -->
<g id="edge3" class="edge">
<title>CI&#45;&gt;Scan</title>
<path fill="none" stroke="#374151" d="M461.04,-19C461.04,-19 495.7,-19 495.7,-19"/>
<polygon fill="#374151" stroke="#374151" points="495.7,-21.8 503.7,-19 495.7,-16.2 495.7,-21.8"/>
</g>
<!-- Build -->
<g id="node5" class="node">
<title>Build</title>
<path fill="#fef3c7" stroke="#6b7280" d="M888,-38C888,-38 743,-38 743,-38 737,-38 731,-32 731,-26 731,-26 731,-12 731,-12 731,-6 737,0 743,0 743,0 888,0 888,0 894,0 900,-6 900,-12 900,-12 900,-26 900,-26 900,-32 894,-38 888,-38"/>
<text text-anchor="middle" x="815.5" y="-22.4" font-family="Arial" font-size="12.00">Build Artifact</text>
<text text-anchor="middle" x="815.5" y="-9.4" font-family="Arial" font-size="12.00">Container image or package</text>
</g>
<!-- Scan&#45;&gt;Build -->
<g id="edge4" class="edge">
<title>Scan&#45;&gt;Build</title>
<path fill="none" stroke="#374151" d="M688.13,-19C688.13,-19 722.95,-19 722.95,-19"/>
<polygon fill="#374151" stroke="#374151" points="722.95,-21.8 730.95,-19 722.95,-16.2 722.95,-21.8"/>
</g>
<!-- ECR -->
<g id="node6" class="node">
<title>ECR</title>
<path fill="#fef3c7" stroke="#6b7280" d="M1047,-38C1047,-38 955,-38 955,-38 949,-38 943,-32 943,-26 943,-26 943,-12 943,-12 943,-6 949,0 955,0 955,0 1047,0 1047,0 1053,0 1059,-6 1059,-12 1059,-12 1059,-26 1059,-26 1059,-32 1053,-38 1047,-38"/>
<text text-anchor="middle" x="1001" y="-22.4" font-family="Arial" font-size="12.00">Amazon ECR / S3</text>
<text text-anchor="middle" x="1001" y="-9.4" font-family="Arial" font-size="12.00">Artifact storage</text>
</g>
<!-- Build&#45;&gt;ECR -->
<g id="edge5" class="edge">
<title>Build&#45;&gt;ECR</title>
<path fill="none" stroke="#374151" d="M900.11,-19C900.11,-19 934.78,-19 934.78,-19"/>
<polygon fill="#374151" stroke="#374151" points="934.78,-21.8 942.78,-19 934.78,-16.2 934.78,-21.8"/>
</g>
<!-- Deploy -->
<g id="node7" class="node">
<title>Deploy</title>
<path fill="#dcfce7" stroke="#6b7280" d="M1253,-38C1253,-38 1114,-38 1114,-38 1108,-38 1102,-32 1102,-26 1102,-26 1102,-12 1102,-12 1102,-6 1108,0 1114,0 1114,0 1253,0 1253,0 1259,0 1265,-6 1265,-12 1265,-12 1265,-26 1265,-26 1265,-32 1259,-38 1253,-38"/>
<text text-anchor="middle" x="1183.5" y="-22.4" font-family="Arial" font-size="12.00">Deploy</text>
<text text-anchor="middle" x="1183.5" y="-9.4" font-family="Arial" font-size="12.00">ECS / EKS / Lambda / EC2</text>
</g>
<!-- ECR&#45;&gt;Deploy -->
<g id="edge6" class="edge">
<title>ECR&#45;&gt;Deploy</title>
<path fill="none" stroke="#374151" d="M1059.25,-19C1059.25,-19 1093.86,-19 1093.86,-19"/>
<polygon fill="#374151" stroke="#374151" points="1093.86,-21.8 1101.86,-19 1093.86,-16.2 1093.86,-21.8"/>
</g>
<!-- Monitor -->
<g id="node8" class="node">
<title>Monitor</title>
<path fill="#ede9fe" stroke="#6b7280" d="M1427,-38C1427,-38 1320,-38 1320,-38 1314,-38 1308,-32 1308,-26 1308,-26 1308,-12 1308,-12 1308,-6 1314,0 1320,0 1320,0 1427,0 1427,0 1433,0 1439,-6 1439,-12 1439,-12 1439,-26 1439,-26 1439,-32 1433,-38 1427,-38"/>
<text text-anchor="middle" x="1373.5" y="-22.4" font-family="Arial" font-size="12.00">CloudWatch + X&#45;Ray</text>
<text text-anchor="middle" x="1373.5" y="-9.4" font-family="Arial" font-size="12.00">Monitor and trace</text>
</g>
<!-- Deploy&#45;&gt;Monitor -->
<g id="edge7" class="edge">
<title>Deploy&#45;&gt;Monitor</title>
<path fill="none" stroke="#374151" d="M1265.18,-19C1265.18,-19 1299.93,-19 1299.93,-19"/>
<polygon fill="#374151" stroke="#374151" points="1299.93,-21.8 1307.93,-19 1299.93,-16.2 1299.93,-21.8"/>
</g>
<!-- Feedback -->
<g id="node9" class="node">
<title>Feedback</title>
<path fill="#e0f2fe" stroke="#6b7280" d="M1584,-37C1584,-37 1494,-37 1494,-37 1488,-37 1482,-31 1482,-25 1482,-25 1482,-13 1482,-13 1482,-7 1488,-1 1494,-1 1494,-1 1584,-1 1584,-1 1590,-1 1596,-7 1596,-13 1596,-13 1596,-25 1596,-25 1596,-31 1590,-37 1584,-37"/>
<text text-anchor="middle" x="1539" y="-15.9" font-family="Arial" font-size="12.00">Feedback to team</text>
</g>
<!-- Monitor&#45;&gt;Feedback -->
<g id="edge8" class="edge">
<title>Monitor&#45;&gt;Feedback</title>
<path fill="none" stroke="#374151" d="M1439.39,-19C1439.39,-19 1473.89,-19 1473.89,-19"/>
<polygon fill="#374151" stroke="#374151" points="1473.89,-21.8 1481.89,-19 1473.89,-16.2 1473.89,-21.8"/>
</g>
</g>
</svg>
