<?xml version="1.0" encoding="UTF-8" standalone="no"?>
<!DOCTYPE svg PUBLIC "-//W3C//DTD SVG 1.1//EN"
 "http://www.w3.org/Graphics/SVG/1.1/DTD/svg11.dtd">
<!-- Generated by graphviz version 2.42.4 (0)
 -->
<!-- Title: G Pages: 1 -->
<svg width="1111pt" height="276pt"
 viewBox="0.00 0.00 1111.00 276.00" xmlns="http://www.w3.org/2000/svg" xmlns:xlink="http://www.w3.org/1999/xlink">
<g id="graph0" class="graph" transform="scale(1 1) rotate(0) translate(18 258)">
<title>G</title>
<text text-anchor="middle" x="537.5" y="-218.4" font-family="Arial" font-size="22.00">AWS Security and Governance Flow</text>
<!-- ORG -->
<g id="node1" class="node">
<title>ORG</title>
<path fill="#eef2ff" stroke="#6b7280" d="M210,-207C210,-207 111,-207 111,-207 105,-207 99,-201 99,-195 99,-195 99,-183 99,-183 99,-177 105,-171 111,-171 111,-171 210,-171 210,-171 216,-171 222,-177 222,-183 222,-183 222,-195 222,-195 222,-201 216,-207 210,-207"/>
<text text-anchor="middle" x="160.5" y="-185.9" font-family="Arial" font-size="12.00">AWS Organizations</text>
</g>
<!-- SCP -->
<g id="node2" class="node">
<title>SCP</title>
<path fill="#fee2e2" stroke="#6b7280" d="M135,-123C135,-123 12,-123 12,-123 6,-123 0,-117 0,-111 0,-111 0,-97 0,-97 0,-91 6,-85 12,-85 12,-85 135,-85 135,-85 141,-85 147,-91 147,-97 147,-97 147,-111 147,-111 147,-117 141,-123 135,-123"/>
<text text-anchor="middle" x="73.5" y="-107.4" font-family="Arial" font-size="12.00">Service Control Policies</text>
<text text-anchor="middle" x="73.5" y="-94.4" font-family="Arial" font-size="12.00">Prevent risky actions</text>
</g>
<!-- ORG&#45;&gt;SCP -->
<g id="edge1" class="edge">
<title>ORG&#45;&gt;SCP</title>
<path fill="none" stroke="#374151" d="M123,-170.97C123,-170.97 123,-131.18 123,-131.18"/>
<polygon fill="#374151" stroke="#374151" points="125.8,-131.18 123,-123.18 120.2,-131.18 125.8,-131.18"/>
</g>
<!-- CTOWER -->
<g id="node3" class="node">
<title>CTOWER</title>
<path fill="#eef2ff" stroke="#6b7280" d="M298,-123C298,-123 199,-123 199,-123 193,-123 187,-117 187,-111 187,-111 187,-97 187,-97 187,-91 193,-85 199,-85 199,-85 298,-85 298,-85 304,-85 310,-91 310,-97 310,-97 310,-111 310,-111 310,-117 304,-123 298,-123"/>
<text text-anchor="middle" x="248.5" y="-107.4" font-family="Arial" font-size="12.00">AWS Control Tower</text>
<text text-anchor="middle" x="248.5" y="-94.4" font-family="Arial" font-size="12.00">Landing zone</text>
</g>
<!-- ORG&#45;&gt;CTOWER -->
<g id="edge2" class="edge">
<title>ORG&#45;&gt;CTOWER</title>
<path fill="none" stroke="#374151" d="M204.5,-170.97C204.5,-170.97 204.5,-131.18 204.5,-131.18"/>
<polygon fill="#374151" stroke="#374151" points="207.3,-131.18 204.5,-123.18 201.7,-131.18 207.3,-131.18"/>
</g>
<!-- ACCOUNTS -->
<g id="node4" class="node">
<title>ACCOUNTS</title>
<path fill="#dcfce7" stroke="#6b7280" d="M342,-38C342,-38 155,-38 155,-38 149,-38 143,-32 143,-26 143,-26 143,-12 143,-12 143,-6 149,0 155,0 155,0 342,0 342,0 348,0 354,-6 354,-12 354,-12 354,-26 354,-26 354,-32 348,-38 342,-38"/>
<text text-anchor="middle" x="248.5" y="-22.4" font-family="Arial" font-size="12.00">Workload Accounts</text>
<text text-anchor="middle" x="248.5" y="-9.4" font-family="Arial" font-size="12.00">Dev / Test / Prod / Security / Logging</text>
</g>
<!-- SCP&#45;&gt;ACCOUNTS -->
<g id="edge4" class="edge">
<title>SCP&#45;&gt;ACCOUNTS</title>
<path fill="none" stroke="#374151" d="M147.17,-104C158.76,-104 167,-104 167,-104 167,-104 167,-46.29 167,-46.29"/>
<polygon fill="#374151" stroke="#374151" points="169.8,-46.29 167,-38.29 164.2,-46.29 169.8,-46.29"/>
</g>
<!-- CTOWER&#45;&gt;ACCOUNTS -->
<g id="edge3" class="edge">
<title>CTOWER&#45;&gt;ACCOUNTS</title>
<path fill="none" stroke="#374151" d="M248.5,-84.71C248.5,-84.71 248.5,-46.21 248.5,-46.21"/>
<polygon fill="#374151" stroke="#374151" points="251.3,-46.21 248.5,-38.21 245.7,-46.21 251.3,-46.21"/>
</g>
<!-- IAM -->
<g id="node5" class="node">
<title>IAM</title>
<path fill="#fee2e2" stroke="#6b7280" d="M459,-123C459,-123 362,-123 362,-123 356,-123 350,-117 350,-111 350,-111 350,-97 350,-97 350,-91 356,-85 362,-85 362,-85 459,-85 459,-85 465,-85 471,-91 471,-97 471,-97 471,-111 471,-111 471,-117 465,-123 459,-123"/>
<text text-anchor="middle" x="410.5" y="-107.4" font-family="Arial" font-size="12.00">IAM Identity Center</text>
<text text-anchor="middle" x="410.5" y="-94.4" font-family="Arial" font-size="12.00">Centralized access</text>
</g>
<!-- IAM&#45;&gt;ACCOUNTS -->
<g id="edge5" class="edge">
<title>IAM&#45;&gt;ACCOUNTS</title>
<path fill="none" stroke="#374151" d="M349.9,-104C338.46,-104 330,-104 330,-104 330,-104 330,-46.29 330,-46.29"/>
<polygon fill="#374151" stroke="#374151" points="332.8,-46.29 330,-38.29 327.2,-46.29 332.8,-46.29"/>
</g>
<!-- CLOUDTRAIL -->
<g id="node6" class="node">
<title>CLOUDTRAIL</title>
<path fill="#ede9fe" stroke="#6b7280" d="M600,-208C600,-208 531,-208 531,-208 525,-208 519,-202 519,-196 519,-196 519,-182 519,-182 519,-176 525,-170 531,-170 531,-170 600,-170 600,-170 606,-170 612,-176 612,-182 612,-182 612,-196 612,-196 612,-202 606,-208 600,-208"/>
<text text-anchor="middle" x="565.5" y="-192.4" font-family="Arial" font-size="12.00">CloudTrail</text>
<text text-anchor="middle" x="565.5" y="-179.4" font-family="Arial" font-size="12.00">API audit logs</text>
</g>
<!-- LOGGING -->
<g id="node7" class="node">
<title>LOGGING</title>
<path fill="#fef3c7" stroke="#6b7280" d="M608,-122C608,-122 523,-122 523,-122 517,-122 511,-116 511,-110 511,-110 511,-98 511,-98 511,-92 517,-86 523,-86 523,-86 608,-86 608,-86 614,-86 620,-92 620,-98 620,-98 620,-110 620,-110 620,-116 614,-122 608,-122"/>
<text text-anchor="middle" x="565.5" y="-100.9" font-family="Arial" font-size="12.00">Logging Account</text>
</g>
<!-- CLOUDTRAIL&#45;&gt;LOGGING -->
<g id="edge6" class="edge">
<title>CLOUDTRAIL&#45;&gt;LOGGING</title>
<path fill="none" stroke="#374151" d="M565.5,-169.71C565.5,-169.71 565.5,-130.05 565.5,-130.05"/>
<polygon fill="#374151" stroke="#374151" points="568.3,-130.05 565.5,-122.05 562.7,-130.05 568.3,-130.05"/>
</g>
<!-- CONFIG -->
<g id="node8" class="node">
<title>CONFIG</title>
<path fill="#ede9fe" stroke="#6b7280" d="M775,-208C775,-208 664,-208 664,-208 658,-208 652,-202 652,-196 652,-196 652,-182 652,-182 652,-176 658,-170 664,-170 664,-170 775,-170 775,-170 781,-170 787,-176 787,-182 787,-182 787,-196 787,-196 787,-202 781,-208 775,-208"/>
<text text-anchor="middle" x="719.5" y="-192.4" font-family="Arial" font-size="12.00">AWS Config</text>
<text text-anchor="middle" x="719.5" y="-179.4" font-family="Arial" font-size="12.00">Resource compliance</text>
</g>
<!-- SECURITY -->
<g id="node9" class="node">
<title>SECURITY</title>
<path fill="#fef3c7" stroke="#6b7280" d="M922,-122C922,-122 837,-122 837,-122 831,-122 825,-116 825,-110 825,-110 825,-98 825,-98 825,-92 831,-86 837,-86 837,-86 922,-86 922,-86 928,-86 934,-92 934,-98 934,-98 934,-110 934,-110 934,-116 928,-122 922,-122"/>
<text text-anchor="middle" x="879.5" y="-100.9" font-family="Arial" font-size="12.00">Security Account</text>
</g>
<!-- CONFIG&#45;&gt;SECURITY -->
<g id="edge7" class="edge">
<title>CONFIG&#45;&gt;SECURITY</title>
<path fill="none" stroke="#374151" d="M717.5,-169.71C717.5,-144.63 717.5,-104 717.5,-104 717.5,-104 816.65,-104 816.65,-104"/>
<polygon fill="#374151" stroke="#374151" points="816.65,-106.8 824.65,-104 816.65,-101.2 816.65,-106.8"/>
</g>
<!-- SNOW -->
<g id="node12" class="node">
<title>SNOW</title>
<path fill="#e0f2fe" stroke="#6b7280" d="M964,-38C964,-38 795,-38 795,-38 789,-38 783,-32 783,-26 783,-26 783,-12 783,-12 783,-6 789,0 795,0 795,0 964,0 964,0 970,0 976,-6 976,-12 976,-12 976,-26 976,-26 976,-32 970,-38 964,-38"/>
<text text-anchor="middle" x="879.5" y="-22.4" font-family="Arial" font-size="12.00">Ticketing / Alerting</text>
<text text-anchor="middle" x="879.5" y="-9.4" font-family="Arial" font-size="12.00">ServiceNow / SNS / EventBridge</text>
</g>
<!-- SECURITY&#45;&gt;SNOW -->
<g id="edge10" class="edge">
<title>SECURITY&#45;&gt;SNOW</title>
<path fill="none" stroke="#374151" d="M879.5,-85.97C879.5,-85.97 879.5,-46.18 879.5,-46.18"/>
<polygon fill="#374151" stroke="#374151" points="882.3,-46.18 879.5,-38.18 876.7,-46.18 882.3,-46.18"/>
</g>
<!-- GUARDDUTY -->
<g id="node10" class="node">
<title>GUARDDUTY</title>
<path fill="#fee2e2" stroke="#6b7280" d="M920,-208C920,-208 839,-208 839,-208 833,-208 827,-202 827,-196 827,-196 827,-182 827,-182 827,-176 833,-170 839,-170 839,-170 920,-170 920,-170 926,-170 932,-176 932,-182 932,-182 932,-196 932,-196 932,-202 926,-208 920,-208"/>
<text text-anchor="middle" x="879.5" y="-192.4" font-family="Arial" font-size="12.00">GuardDuty</text>
<text text-anchor="middle" x="879.5" y="-179.4" font-family="Arial" font-size="12.00">Threat detection</text>
</g>
<!-- GUARDDUTY&#45;&gt;SECURITY -->
<g id="edge8" class="edge">
<title>GUARDDUTY&#45;&gt;SECURITY</title>
<path fill="none" stroke="#374151" d="M879.5,-169.71C879.5,-169.71 879.5,-130.05 879.5,-130.05"/>
<polygon fill="#374151" stroke="#374151" points="882.3,-130.05 879.5,-122.05 876.7,-130.05 882.3,-130.05"/>
</g>
<!-- SECURITYHUB -->
<g id="node11" class="node">
<title>SECURITYHUB</title>
<path fill="#fee2e2" stroke="#6b7280" d="M1063,-208C1063,-208 984,-208 984,-208 978,-208 972,-202 972,-196 972,-196 972,-182 972,-182 972,-176 978,-170 984,-170 984,-170 1063,-170 1063,-170 1069,-170 1075,-176 1075,-182 1075,-182 1075,-196 1075,-196 1075,-202 1069,-208 1063,-208"/>
<text text-anchor="middle" x="1023.5" y="-192.4" font-family="Arial" font-size="12.00">Security Hub</text>
<text text-anchor="middle" x="1023.5" y="-179.4" font-family="Arial" font-size="12.00">Central findings</text>
</g>
<!-- SECURITYHUB&#45;&gt;SECURITY -->
<g id="edge9" class="edge">
<title>SECURITYHUB&#45;&gt;SECURITY</title>
<path fill="none" stroke="#374151" d="M1025.5,-169.71C1025.5,-144.63 1025.5,-104 1025.5,-104 1025.5,-104 942.28,-104 942.28,-104"/>
<polygon fill="#374151" stroke="#374151" points="942.28,-101.2 934.28,-104 942.28,-106.8 942.28,-101.2"/>
</g>
</g>
</svg>
