<?xml version="1.0" encoding="UTF-8" standalone="no"?>
<!DOCTYPE svg PUBLIC "-//W3C//DTD SVG 1.1//EN"
 "http://www.w3.org/Graphics/SVG/1.1/DTD/svg11.dtd">
<!-- Generated by graphviz version 2.42.4 (0)
 -->
<!-- Title: G Pages: 1 -->
<svg width="1263pt" height="194pt"
 viewBox="0.00 0.00 1263.00 194.00" xmlns="http://www.w3.org/2000/svg" xmlns:xlink="http://www.w3.org/1999/xlink">
<g id="graph0" class="graph" transform="scale(1 1) rotate(0) translate(18 176)">
<title>G</title>
<text text-anchor="middle" x="613.5" y="-136.4" font-family="Arial" font-size="22.00">Secure 3&#45;Tier AWS Application Flow</text>
<!-- User -->
<g id="node1" class="node">
<title>User</title>
<path fill="#e0f2fe" stroke="#6b7280" d="M90,-73C90,-73 12,-73 12,-73 6,-73 0,-67 0,-61 0,-61 0,-47 0,-47 0,-41 6,-35 12,-35 12,-35 90,-35 90,-35 96,-35 102,-41 102,-47 102,-47 102,-61 102,-61 102,-67 96,-73 90,-73"/>
<text text-anchor="middle" x="51" y="-57.4" font-family="Arial" font-size="12.00">1. User</text>
<text text-anchor="middle" x="51" y="-44.4" font-family="Arial" font-size="12.00">HTTPS request</text>
</g>
<!-- DNS -->
<g id="node2" class="node">
<title>DNS</title>
<path fill="#eef2ff" stroke="#6b7280" d="M235,-126C235,-126 159,-126 159,-126 153,-126 147,-120 147,-114 147,-114 147,-100 147,-100 147,-94 153,-88 159,-88 159,-88 235,-88 235,-88 241,-88 247,-94 247,-100 247,-100 247,-114 247,-114 247,-120 241,-126 235,-126"/>
<text text-anchor="middle" x="197" y="-110.4" font-family="Arial" font-size="12.00">2. Route 53</text>
<text text-anchor="middle" x="197" y="-97.4" font-family="Arial" font-size="12.00">DNS resolution</text>
</g>
<!-- User&#45;&gt;DNS -->
<g id="edge1" class="edge">
<title>User&#45;&gt;DNS</title>
<path fill="none" stroke="#374151" d="M102.06,-63.5C144.17,-63.5 197,-63.5 197,-63.5 197,-63.5 197,-79.79 197,-79.79"/>
<polygon fill="#374151" stroke="#374151" points="194.2,-79.79 197,-87.79 199.8,-79.79 194.2,-79.79"/>
</g>
<!-- CDN -->
<g id="node3" class="node">
<title>CDN</title>
<path fill="#fee2e2" stroke="#6b7280" d="M486,-126C486,-126 379,-126 379,-126 373,-126 367,-120 367,-114 367,-114 367,-100 367,-100 367,-94 373,-88 379,-88 379,-88 486,-88 486,-88 492,-88 498,-94 498,-100 498,-100 498,-114 498,-114 498,-120 492,-126 486,-126"/>
<text text-anchor="middle" x="432.5" y="-110.4" font-family="Arial" font-size="12.00">3. CloudFront + WAF</text>
<text text-anchor="middle" x="432.5" y="-97.4" font-family="Arial" font-size="12.00">Cache and protect</text>
</g>
<!-- DNS&#45;&gt;CDN -->
<g id="edge2" class="edge">
<title>DNS&#45;&gt;CDN</title>
<path fill="none" stroke="#374151" d="M247.23,-107C247.23,-107 358.68,-107 358.68,-107"/>
<polygon fill="#374151" stroke="#374151" points="358.68,-109.8 366.68,-107 358.68,-104.2 358.68,-109.8"/>
</g>
<!-- ALB -->
<g id="node4" class="node">
<title>ALB</title>
<path fill="#e0f2fe" stroke="#6b7280" d="M703,-73C703,-73 555,-73 555,-73 549,-73 543,-67 543,-61 543,-61 543,-47 543,-47 543,-41 549,-35 555,-35 555,-35 703,-35 703,-35 709,-35 715,-41 715,-47 715,-47 715,-61 715,-61 715,-67 709,-73 703,-73"/>
<text text-anchor="middle" x="629" y="-57.4" font-family="Arial" font-size="12.00">4. Application Load Balancer</text>
<text text-anchor="middle" x="629" y="-44.4" font-family="Arial" font-size="12.00">Route to healthy target</text>
</g>
<!-- CDN&#45;&gt;ALB -->
<g id="edge3" class="edge">
<title>CDN&#45;&gt;ALB</title>
<path fill="none" stroke="#374151" d="M433,-87.87C433,-72.68 433,-54 433,-54 433,-54 534.75,-54 534.75,-54"/>
<polygon fill="#374151" stroke="#374151" points="534.75,-56.8 542.75,-54 534.75,-51.2 534.75,-56.8"/>
</g>
<!-- ALB&#45;&gt;User -->
<g id="edge8" class="edge">
<title>ALB&#45;&gt;User</title>
<path fill="none" stroke="#374151" d="M542.78,-44.5C542.78,-44.5 110.08,-44.5 110.08,-44.5"/>
<polygon fill="#374151" stroke="#374151" points="110.08,-41.7 102.08,-44.5 110.08,-47.3 110.08,-41.7"/>
<text text-anchor="middle" x="307" y="-36" font-family="Arial" font-size="10.00">HTTPS response</text>
</g>
<!-- APP -->
<g id="node5" class="node">
<title>APP</title>
<path fill="#dcfce7" stroke="#6b7280" d="M969,-108C969,-108 830,-108 830,-108 824,-108 818,-102 818,-96 818,-96 818,-82 818,-82 818,-76 824,-70 830,-70 830,-70 969,-70 969,-70 975,-70 981,-76 981,-82 981,-82 981,-96 981,-96 981,-102 975,-108 969,-108"/>
<text text-anchor="middle" x="899.5" y="-92.4" font-family="Arial" font-size="12.00">5. App Tier</text>
<text text-anchor="middle" x="899.5" y="-79.4" font-family="Arial" font-size="12.00">EC2 / ECS / EKS / Lambda</text>
</g>
<!-- ALB&#45;&gt;APP -->
<g id="edge4" class="edge">
<title>ALB&#45;&gt;APP</title>
<path fill="none" stroke="#374151" d="M658,-73.37C658,-76.1 658,-78 658,-78 658,-78 809.74,-78 809.74,-78"/>
<polygon fill="#374151" stroke="#374151" points="809.74,-80.8 817.74,-78 809.74,-75.2 809.74,-80.8"/>
</g>
<!-- Logs -->
<g id="node7" class="node">
<title>Logs</title>
<path fill="#ede9fe" stroke="#6b7280" d="M1215,-38C1215,-38 1077,-38 1077,-38 1071,-38 1065,-32 1065,-26 1065,-26 1065,-12 1065,-12 1065,-6 1071,0 1077,0 1077,0 1215,0 1215,0 1221,0 1227,-6 1227,-12 1227,-12 1227,-26 1227,-26 1227,-32 1221,-38 1215,-38"/>
<text text-anchor="middle" x="1146" y="-22.4" font-family="Arial" font-size="12.00">7. CloudWatch / CloudTrail</text>
<text text-anchor="middle" x="1146" y="-9.4" font-family="Arial" font-size="12.00">Metrics, logs, audit</text>
</g>
<!-- ALB&#45;&gt;Logs -->
<g id="edge10" class="edge">
<title>ALB&#45;&gt;Logs</title>
<path fill="none" stroke="#374151" d="M715.13,-54C844.25,-54 1073,-54 1073,-54 1073,-54 1073,-46.14 1073,-46.14"/>
<polygon fill="#374151" stroke="#374151" points="1075.8,-46.14 1073,-38.14 1070.2,-46.14 1075.8,-46.14"/>
</g>
<!-- APP&#45;&gt;ALB -->
<g id="edge7" class="edge">
<title>APP&#45;&gt;ALB</title>
<path fill="none" stroke="#374151" d="M817.93,-83C729.55,-83 601,-83 601,-83 601,-83 601,-81.18 601,-81.18"/>
<polygon fill="#374151" stroke="#374151" points="603.8,-81.18 601,-73.18 598.2,-81.18 603.8,-81.18"/>
<text text-anchor="middle" x="766.5" y="-57" font-family="Arial" font-size="10.00">app response</text>
</g>
<!-- DB -->
<g id="node6" class="node">
<title>DB</title>
<path fill="#fef3c7" stroke="#6b7280" d="M1192,-126C1192,-126 1100,-126 1100,-126 1094,-126 1088,-120 1088,-114 1088,-114 1088,-100 1088,-100 1088,-94 1094,-88 1100,-88 1100,-88 1192,-88 1192,-88 1198,-88 1204,-94 1204,-100 1204,-100 1204,-114 1204,-114 1204,-120 1198,-126 1192,-126"/>
<text text-anchor="middle" x="1146" y="-110.4" font-family="Arial" font-size="12.00">6. Data Tier</text>
<text text-anchor="middle" x="1146" y="-97.4" font-family="Arial" font-size="12.00">RDS / DynamoDB</text>
</g>
<!-- APP&#45;&gt;DB -->
<g id="edge5" class="edge">
<title>APP&#45;&gt;DB</title>
<path fill="none" stroke="#374151" d="M981.24,-94.67C981.24,-94.67 1079.86,-94.67 1079.86,-94.67"/>
<polygon fill="#374151" stroke="#374151" points="1079.86,-97.47 1087.86,-94.67 1079.86,-91.87 1079.86,-97.47"/>
</g>
<!-- APP&#45;&gt;Logs -->
<g id="edge9" class="edge">
<title>APP&#45;&gt;Logs</title>
<path fill="none" stroke="#374151" d="M981.22,-79C1029.4,-79 1081,-79 1081,-79 1081,-79 1081,-46.31 1081,-46.31"/>
<polygon fill="#374151" stroke="#374151" points="1083.8,-46.31 1081,-38.31 1078.2,-46.31 1083.8,-46.31"/>
</g>
<!-- DB&#45;&gt;APP -->
<g id="edge6" class="edge">
<title>DB&#45;&gt;APP</title>
<path fill="none" stroke="#374151" d="M1087.9,-101.33C1087.9,-101.33 989,-101.33 989,-101.33"/>
<polygon fill="#374151" stroke="#374151" points="989,-98.53 981,-101.33 989,-104.13 989,-98.53"/>
<text text-anchor="middle" x="1023" y="-96" font-family="Arial" font-size="10.00">response</text>
</g>
</g>
</svg>
