<svg xmlns="http://www.w3.org/2000/svg" width="1000" height="580" viewBox="0 0 1000 580">
  <defs>
    <marker id="arrow" markerWidth="10" markerHeight="10" refX="9" refY="3" orient="auto" markerUnits="strokeWidth">
      <path d="M0,0 L0,6 L9,3 z" fill="#34495e"/>
    </marker>
    <filter id="shadow" x="-20%" y="-20%" width="140%" height="140%">
      <feDropShadow dx="0" dy="2" stdDeviation="3" flood-opacity="0.18"/>
    </filter>
  </defs>
  <rect width="100%" height="100%" fill="#fbfcfe"/>
  <text x="500.0" y="45" text-anchor="middle" font-family="Arial, sans-serif" font-size="30" font-weight="700" fill="#17202a">AWS STS Cross-Account Access Flow</text>

<line x1="270" y1="225.0" x2="360" y2="225.0" stroke="#34495e" stroke-width="2.5" marker-end="url(#arrow)" />
<rect x="210.0" y="199.0" width="210" height="28" rx="14" fill="#ffffff" stroke="#d5d8dc"/>
<text x="315.0" y="218.0" text-anchor="middle" font-family="Arial, sans-serif" font-size="13" fill="#2c3e50">1. Assume role</text>
<line x1="570" y1="225.0" x2="660" y2="155.0" stroke="#34495e" stroke-width="2.5" marker-end="url(#arrow)" />
<rect x="510.0" y="164.0" width="210" height="28" rx="14" fill="#ffffff" stroke="#d5d8dc"/>
<text x="615.0" y="183.0" text-anchor="middle" font-family="Arial, sans-serif" font-size="13" fill="#2c3e50">2. Trust validated</text>
<line x1="910" y1="155.0" x2="660" y2="355.0" stroke="#34495e" stroke-width="2.5" marker-end="url(#arrow)" />
<rect x="680.0" y="229.0" width="210" height="28" rx="14" fill="#ffffff" stroke="#d5d8dc"/>
<text x="785.0" y="248.0" text-anchor="middle" font-family="Arial, sans-serif" font-size="13" fill="#2c3e50">3. Access allowed</text>
<line x1="570" y1="225.0" x2="360" y2="465.0" stroke="#34495e" stroke-width="2.5" marker-end="url(#arrow)" />
<rect x="360.0" y="319.0" width="210" height="28" rx="14" fill="#ffffff" stroke="#d5d8dc"/>
<text x="465.0" y="338.0" text-anchor="middle" font-family="Arial, sans-serif" font-size="13" fill="#2c3e50">Audit</text>
<rect x="40" y="170" width="230" height="110" rx="16" fill="#eaf2ff" stroke="#2e86de" stroke-width="2" filter="url(#shadow)"/>
<text x="155.0" y="214.0" text-anchor="middle" font-family="Arial, sans-serif" font-size="18" font-weight="700" fill="#17202a">Account A</text>
<text x="155.0" y="238.0" text-anchor="middle" font-family="Arial, sans-serif" font-size="14" font-weight="400" fill="#17202a">Source principal</text>
<rect x="360" y="170" width="210" height="110" rx="16" fill="#eafaf1" stroke="#229954" stroke-width="2" filter="url(#shadow)"/>
<text x="465.0" y="214.0" text-anchor="middle" font-family="Arial, sans-serif" font-size="18" font-weight="700" fill="#17202a">AWS STS</text>
<text x="465.0" y="238.0" text-anchor="middle" font-family="Arial, sans-serif" font-size="14" font-weight="400" fill="#17202a">AssumeRole</text>
<rect x="660" y="100" width="250" height="110" rx="16" fill="#fff8e1" stroke="#f39c12" stroke-width="2" filter="url(#shadow)"/>
<text x="785.0" y="144.0" text-anchor="middle" font-family="Arial, sans-serif" font-size="18" font-weight="700" fill="#17202a">Account B Role</text>
<text x="785.0" y="168.0" text-anchor="middle" font-family="Arial, sans-serif" font-size="14" font-weight="400" fill="#17202a">Trusts Account A</text>
<rect x="660" y="300" width="250" height="110" rx="16" fill="#fdf2e9" stroke="#d35400" stroke-width="2" filter="url(#shadow)"/>
<text x="785.0" y="344.0" text-anchor="middle" font-family="Arial, sans-serif" font-size="18" font-weight="700" fill="#17202a">Account B Resources</text>
<text x="785.0" y="368.0" text-anchor="middle" font-family="Arial, sans-serif" font-size="14" font-weight="400" fill="#17202a">S3 / EC2 / RDS</text>
<rect x="360" y="420" width="210" height="90" rx="16" fill="#f8f9f9" stroke="#566573" stroke-width="2" filter="url(#shadow)"/>
<text x="465.0" y="454.0" text-anchor="middle" font-family="Arial, sans-serif" font-size="18" font-weight="700" fill="#17202a">CloudTrail</text>
<text x="465.0" y="478.0" text-anchor="middle" font-family="Arial, sans-serif" font-size="14" font-weight="400" fill="#17202a">Both accounts can log</text>
</svg>